<svg width="40" height="40" viewBox="0 0 40 40" fill="none" xmlns="http://www.w3.org/2000/svg">
<path d="M20 20C20.9167 20 21.7017 19.6733 22.355 19.02C23.0084 18.3667 23.3345 17.5822 23.3334 16.6667C23.3334 15.75 23.0067 14.965 22.3534 14.3117C21.7 13.6583 20.9156 13.3322 20 13.3333C19.0834 13.3333 18.2984 13.66 17.645 14.3133C16.9917 14.9667 16.6656 15.7511 16.6667 16.6667C16.6667 17.5833 16.9934 18.3683 17.6467 19.0217C18.3 19.675 19.0845 20.0011 20 20ZM20 32.25C23.3889 29.1389 25.9028 26.3122 27.5417 23.77C29.1806 21.2278 30 18.9711 30 17C30 13.9722 29.0345 11.4933 27.1034 9.56334C25.1722 7.63334 22.8045 6.66778 20 6.66667C17.1945 6.66667 14.8261 7.63222 12.895 9.56334C10.9639 11.4944 9.99891 13.9733 10 17C10 18.9722 10.8195 21.2294 12.4584 23.7717C14.0972 26.3139 16.6111 29.14 20 32.25ZM20 36.0417C19.7778 36.0417 19.5556 36 19.3334 35.9167C19.1111 35.8333 18.9167 35.7222 18.75 35.5833C14.6945 32 11.6667 28.6733 9.66669 25.6033C7.66669 22.5333 6.66669 19.6656 6.66669 17C6.66669 12.8333 8.00724 9.51389 10.6884 7.04167C13.3695 4.56945 16.4734 3.33334 20 3.33334C23.5278 3.33334 26.6322 4.56945 29.3134 7.04167C31.9945 9.51389 33.3345 12.8333 33.3334 17C33.3334 19.6667 32.3334 22.535 30.3334 25.605C28.3334 28.675 25.3056 32.0011 21.25 35.5833C21.0834 35.7222 20.8889 35.8333 20.6667 35.9167C20.4445 36 20.2222 36.0417 20 36.0417Z" fill="black"/>
</svg>
