<svg width="40" height="40" viewBox="0 0 40 40" fill="none" xmlns="http://www.w3.org/2000/svg">
<path d="M33.25 35C29.6667 35 26.1739 34.2011 22.7717 32.6033C19.3694 31.0056 16.3556 28.8944 13.73 26.27C11.1044 23.6456 8.99333 20.6317 7.39667 17.2283C5.8 13.825 5.00111 10.3322 5 6.75C5 6.25 5.16667 5.83333 5.5 5.5C5.83333 5.16667 6.25 5 6.75 5H13.5C13.8889 5 14.2361 5.125 14.5417 5.375C14.8472 5.625 15.0278 5.94444 15.0833 6.33333L16.1667 12.1667C16.2222 12.5556 16.215 12.91 16.145 13.23C16.075 13.55 15.9156 13.8344 15.6667 14.0833L11.625 18.1667C12.7917 20.1667 14.2572 22.0417 16.0217 23.7917C17.7861 25.5417 19.7233 27.0556 21.8333 28.3333L25.75 24.4167C26 24.1667 26.3267 23.9789 26.73 23.8533C27.1333 23.7278 27.5289 23.6933 27.9167 23.75L33.6667 24.9167C34.0556 25 34.375 25.1878 34.625 25.48C34.875 25.7722 35 26.1122 35 26.5V33.25C35 33.75 34.8333 34.1667 34.5 34.5C34.1667 34.8333 33.75 35 33.25 35ZM10.0417 15L12.7917 12.25L12.0833 8.33333H8.375C8.51389 9.47222 8.70833 10.5972 8.95833 11.7083C9.20833 12.8194 9.56944 13.9167 10.0417 15ZM31.6667 31.5833V27.9167L27.75 27.125L24.9583 29.9167C26.0417 30.3889 27.1456 30.7639 28.27 31.0417C29.3944 31.3194 30.5267 31.5 31.6667 31.5833Z" fill="black"/>
</svg>
