<svg width="50" height="50" viewBox="0 0 50 50" fill="none" xmlns="http://www.w3.org/2000/svg">
<mask id="mask0_67_88" style="mask-type:luminance" maskUnits="userSpaceOnUse" x="0" y="0" width="50" height="50">
<path d="M0 0L0 50H50V0H0Z" fill="white"/>
</mask>
<g mask="url(#mask0_67_88)">
<path d="M49.9999 24.9959V18.9485L40.0174 18.9485C39.9955 19.2306 39.9659 19.5261 39.9299 19.811C39.8855 20.2864 39.8199 20.7617 39.7395 21.23C39.7029 21.493 39.6591 21.749 39.6076 22.0057C39.571 22.1743 39.542 22.3421 39.5054 22.5107C39.4468 22.8252 39.3735 23.1397 39.2938 23.4536C39.0533 24.4668 38.7554 25.4656 38.4017 26.4451C38.2705 26.8104 38.1316 27.176 37.9849 27.5418C37.8897 27.7759 37.7874 28.01 37.6852 28.247C37.2687 29.2054 36.8 30.1403 36.2811 31.0475H36.3981C35.9418 31.902 35.3899 32.7019 34.7528 33.4318C34.7528 33.4389 34.7451 33.4466 34.738 33.4537C34.2775 34.1046 33.7874 34.7337 33.2754 35.3479C32.7704 35.9474 32.2443 36.5257 31.6886 37.0814C31.4108 37.3635 31.1244 37.6456 30.8325 37.9072C30.8245 37.9228 30.812 37.9356 30.7965 37.9439C30.5144 38.2076 30.2401 38.4559 29.9502 38.6971C29.3501 39.2239 28.7358 39.714 28.0927 40.178C27.7563 40.427 27.4121 40.6611 27.0609 40.8946C26.7908 41.0779 26.5271 41.2472 26.2492 41.4143C26.2421 41.4214 26.2351 41.4214 26.2273 41.4284C25.9641 41.5972 25.6935 41.7583 25.4156 41.9115C24.7062 42.3135 23.9748 42.6936 23.2294 43.0399C22.9149 43.1858 22.6003 43.3325 22.2781 43.463C21.6349 43.7338 20.984 43.9828 20.326 44.2021C20.0918 44.2825 19.8577 44.3551 19.6208 44.4285C19.1532 44.5751 18.6779 44.7106 18.2018 44.8304C18.034 44.8749 17.8584 44.9186 17.6905 44.9553C17.376 45.0357 17.0685 45.1012 16.754 45.1668C16.4106 45.2331 16.0664 45.2987 15.723 45.3502C15.3428 45.4158 14.955 45.4743 14.5748 45.518C14.2533 45.5618 13.9401 45.5886 13.6242 45.6203C13.4923 45.6351 13.3682 45.6429 13.2363 45.6499C13.1663 45.661 13.0956 45.6683 13.0248 45.6718C12.8491 45.6866 12.6721 45.6936 12.4979 45.7014C12.0226 45.7305 11.54 45.7451 11.0501 45.7451C13.8724 47.6478 17.0541 48.953 20.3995 49.5805C23.7449 50.208 27.1832 50.1445 30.5031 49.394C30.5172 49.3869 30.5391 49.3869 30.5539 49.3799C35.0574 48.3453 39.1871 46.0862 42.4872 42.8518C45.7871 39.6176 48.1289 35.534 49.2537 31.0524C49.753 29.0724 50.0036 27.0379 49.9999 24.9959Z" fill="url(#paint0_linear_67_88)"/>
<path d="M40.0174 18.9485H27.7465C26.9468 18.9398 26.1533 19.0899 25.412 19.3899C24.6707 19.6899 23.9963 20.1341 23.4277 20.6965C22.8592 21.2589 22.4078 21.9285 22.0998 22.6666C21.7917 23.4046 21.6331 24.1964 21.6331 24.9962C21.6331 25.7959 21.7917 26.5877 22.0998 27.3257C22.4078 28.0638 22.8592 28.7334 23.4277 29.2958C23.9963 29.8582 24.6707 30.3023 25.412 30.6024C26.1533 30.9024 26.9468 31.0524 27.7465 31.0438H36.2797C38.4013 27.3365 39.6776 23.2064 40.0174 18.9485Z" fill="url(#paint1_linear_67_88)"/>
<path d="M34.7374 33.4503C33.5285 34.8484 32.0328 35.9698 30.3519 36.7383C28.671 37.5067 26.8443 37.9043 24.9961 37.9039C24.1393 37.9034 23.2847 37.8203 22.4439 37.6556C21.6096 37.4842 20.7941 37.2321 20.0087 36.9024C17.6931 35.9257 15.7113 34.2972 14.3041 32.2148C14.2971 32.2148 14.2971 32.2148 14.2971 32.207C13.9826 31.8706 13.6751 31.5202 13.3803 31.1612C13.3797 31.1557 13.3768 31.1506 13.3725 31.1471C10.6 27.8039 8.68594 23.8341 7.79685 19.5828C6.90774 15.3315 7.07047 10.9274 8.27091 6.75328C8.29982 6.61223 8.34143 6.47112 8.38798 6.33007C3.60941 10.5736 0.640198 16.4881 0.0919177 22.8553C-0.456362 29.2226 1.45805 35.5576 5.44082 40.5555C7.03828 42.5572 8.92952 44.3055 11.0502 45.7411C17.1751 45.7299 23.1394 43.7818 28.0899 40.1754C30.652 38.3046 32.8965 36.0339 34.7374 33.4503Z" fill="url(#paint2_linear_67_88)"/>
<path d="M49.3858 -0.000543594L38.0725 -0.000543594L38.072 0.00235176L38.0702 0.00474548L38.0677 0.00623035L38.0648 0.00651073V0.0142689C37.9406 0.203976 37.8236 0.39446 37.6917 0.578525C37.4096 1.02493 37.1071 1.45653 36.7996 1.88038C36.0254 2.9433 35.1827 3.95459 34.277 4.90785C34.1084 5.0905 33.9328 5.27393 33.7572 5.45659C33.7283 5.4855 33.6916 5.51505 33.662 5.54397C33.4067 5.80772 33.1507 6.05603 32.8863 6.29722C32.6084 6.56098 32.3221 6.8169 32.04 7.0729C31.7988 7.27742 31.5506 7.48969 31.3016 7.69421C31.1408 7.82609 30.9723 7.95726 30.8044 8.08914C30.6726 8.19915 30.5336 8.30077 30.4018 8.40374C30.1972 8.55748 29.9927 8.71115 29.7875 8.85713C29.717 8.90861 29.6465 8.95939 29.583 9.00311C29.3199 9.19352 29.0491 9.38401 28.7713 9.5589C28.739 9.58486 28.7048 9.60841 28.669 9.62935C28.3693 9.82682 28.0689 10.0173 27.7621 10.2C27.4913 10.3756 27.2212 10.5363 26.9426 10.6823C26.8403 10.7486 26.731 10.8071 26.621 10.8656C26.358 11.0187 26.0949 11.1653 25.8312 11.2888C25.8023 11.3036 25.7804 11.3184 25.7508 11.3325C25.444 11.501 25.1295 11.6548 24.8149 11.8008C24.8001 11.8008 24.7931 11.8078 24.7783 11.8156C24.5667 11.9249 24.3551 12.0202 24.1436 12.1154C24.4256 12.0935 24.7141 12.0864 24.999 12.0864H37.2911C38.1141 12.0858 38.9349 12.0024 39.7411 11.8374C42.4657 11.276 44.9132 9.79163 46.6703 7.63497C48.4274 5.47824 49.3866 2.7813 49.3858 -0.000543594Z" fill="url(#paint3_linear_67_88)"/>
<path d="M38.0724 7.24792e-05H24.9961C19.1747 0.00127411 13.5369 2.03713 9.05789 5.75545C8.83151 5.9381 8.60443 6.12859 8.3851 6.32605C8.34646 6.44157 8.31465 6.55934 8.2899 6.67866C8.27629 6.69517 8.2686 6.71576 8.26804 6.7372V6.75123C8.18764 7.02204 8.1143 7.2999 8.04095 7.57776C8.0339 7.62148 8.01909 7.67296 8.00499 7.72444C7.93869 7.98749 7.88016 8.25837 7.82163 8.52847C7.73418 8.91635 7.66083 9.30423 7.59525 9.69915C7.55858 9.91072 7.52966 10.1223 7.49299 10.3339C7.45632 10.5899 7.4274 10.8529 7.39778 11.116C7.36816 11.3579 7.3463 11.599 7.32726 11.8402C7.32021 11.9643 7.3054 12.0891 7.29835 12.2203C7.25462 12.8493 7.23206 13.4855 7.23206 14.1245C7.23206 14.286 7.23206 14.4468 7.23981 14.5998C7.23981 14.7408 7.24687 14.8706 7.25462 15.0095C7.24947 15.0853 7.2518 15.1613 7.26168 15.2366C7.26168 15.3389 7.26873 15.4411 7.27648 15.5434C7.28354 15.8142 7.3054 16.0843 7.32726 16.3551C7.33502 16.4651 7.34207 16.5744 7.35688 16.6844C7.3858 17.0279 7.42247 17.3643 7.47395 17.7084C7.50286 17.92 7.53248 18.1393 7.56845 18.3516C7.56873 18.3917 7.57642 18.4314 7.59102 18.4687C7.61288 18.6295 7.64179 18.7979 7.67141 18.9623C7.78072 19.5836 7.91965 20.2057 8.08045 20.8121C8.12488 20.9955 8.17565 21.1782 8.22713 21.3538C8.50478 22.3392 8.83673 23.3084 9.22151 24.2571C9.33152 24.5272 9.44859 24.791 9.57412 25.054C9.83012 25.6394 10.115 26.2099 10.4204 26.7727C10.5375 27.0068 10.6686 27.2333 10.8005 27.4603C11.1736 28.1113 11.5763 28.7473 12.0072 29.3644C12.2265 29.6719 12.4458 29.9787 12.6729 30.2812C12.8922 30.5669 13.1186 30.8517 13.3457 31.1275C13.3572 31.1353 13.367 31.1454 13.3746 31.1571C13.4331 31.2375 13.4994 31.3102 13.565 31.3906C13.7991 31.6727 14.0474 31.947 14.2963 32.2171C12.8539 30.0892 12.0843 27.5768 12.0876 25.0061V24.999C12.0876 23.3062 12.4215 21.6299 13.0702 20.0663C13.719 18.5027 14.6698 17.0824 15.8683 15.8868C18.0794 13.6736 21.0185 12.338 24.1399 12.128C24.3515 12.0328 24.563 11.9375 24.7746 11.8282C24.7894 11.8205 24.7965 11.8134 24.8113 11.8134C25.1258 11.6597 25.4404 11.5067 25.7471 11.3452C25.7767 11.3311 25.7986 11.3162 25.8275 11.3014C26.0913 11.1703 26.3543 11.0236 26.6174 10.8783C26.7274 10.8198 26.8367 10.7612 26.939 10.6949C27.2211 10.5419 27.4876 10.3811 27.7584 10.2126C28.0652 10.0299 28.3656 9.83943 28.6654 9.64196C28.7011 9.62102 28.7353 9.59746 28.7676 9.57151C29.0384 9.39661 29.3085 9.21318 29.5793 9.01572C29.6449 8.97199 29.7112 8.92129 29.7839 8.8698C29.9891 8.72382 30.1936 8.57009 30.3981 8.41635C30.53 8.31409 30.6689 8.21183 30.8008 8.10181C30.9686 7.97769 31.1372 7.84582 31.298 7.70689C31.5469 7.50237 31.7916 7.29002 32.0364 7.08551C32.3184 6.82951 32.6069 6.57358 32.8826 6.30983C33.1464 6.06864 33.4024 5.8204 33.6584 5.55664C33.688 5.52773 33.7247 5.49804 33.7536 5.46912C33.9292 5.28647 34.1062 5.10318 34.2733 4.92053C35.1791 3.9672 36.0217 2.95583 36.7959 1.89298C37.1105 1.46984 37.4102 1.03747 37.6958 0.591059C37.8199 0.408405 37.9441 0.218061 38.0611 0.0269432V0.0191841C38.0637 0.020668 38.0666 0.0210915 38.0695 0.0203857C38.0723 0.01968 38.0748 0.017849 38.0763 0.0153122C38.0778 0.0127716 38.0782 0.00973892 38.0775 0.00691605C38.0768 0.00402451 38.0749 0.00162506 38.0724 7.24792e-05Z" fill="url(#paint4_linear_67_88)"/>
<g style="mix-blend-mode:multiply" opacity="0.1">
<path d="M24.9962 37.904C24.1394 37.9035 23.2848 37.8203 22.444 37.6557C18.0271 39.4329 12.4615 40.574 5.44092 40.5514C7.03837 42.5531 8.92962 44.3013 11.0503 45.7369C17.1752 45.7258 23.1395 43.7776 28.09 40.1713C30.6518 38.3018 32.8962 36.0325 34.7375 33.4505C33.5286 34.8484 32.0329 35.9698 30.352 36.7383C28.6711 37.5068 26.8444 37.9043 24.9962 37.904Z" fill="black"/>
</g>
<g style="mix-blend-mode:multiply" opacity="0.16">
<path d="M40.0175 18.9488H38.906C37.8492 23.4934 35.5911 27.6707 32.3679 31.0442H36.2805C38.4017 27.3368 39.6778 23.2066 40.0175 18.9488Z" fill="black"/>
</g>
<g style="mix-blend-mode:multiply" opacity="0.1">
<path d="M15.6278 1.8281C13.2479 2.7877 11.0322 4.11276 9.06076 5.75545C8.83438 5.9381 8.6073 6.12859 8.38797 6.32605C8.34933 6.44157 8.31752 6.55934 8.29277 6.67866C8.27916 6.69517 8.27147 6.71576 8.27091 6.7372V6.75123C8.19051 7.02204 8.11717 7.2999 8.04382 7.57776C8.03677 7.62148 8.02196 7.67296 8.00785 7.72444C7.94156 7.98749 7.88303 8.25837 7.8245 8.52847C7.73705 8.91635 7.6637 9.30423 7.59812 9.69915C7.56145 9.91072 7.53253 10.1223 7.49586 10.3339C7.45919 10.5899 7.43027 10.8529 7.40065 11.116C7.37103 11.3579 7.34917 11.599 7.33013 11.8402C7.32308 11.9643 7.30827 12.0891 7.30122 12.2203C7.25749 12.8493 7.23492 13.4855 7.23492 14.1245C7.23492 14.286 7.23492 14.4468 7.24268 14.5998C7.24268 14.7408 7.24973 14.8706 7.25749 15.0095C7.25234 15.0853 7.25474 15.1613 7.26454 15.2366C7.26454 15.3389 7.2716 15.4411 7.27935 15.5434C7.28641 15.8142 7.30827 16.0843 7.33013 16.3551C7.33789 16.4651 7.34494 16.5744 7.35975 16.6844C7.38866 17.0279 7.42534 17.3643 7.47682 17.7084C7.50573 17.92 7.53535 18.1393 7.57132 18.3516C7.57167 18.3917 7.57929 18.4314 7.59389 18.4687C7.61575 18.6295 7.64466 18.7979 7.67428 18.9623C7.78359 19.5836 7.92252 20.2057 8.08331 20.8121C8.12774 20.9955 8.17852 21.1782 8.23 21.3538C8.50765 22.3392 8.83967 23.3084 9.22437 24.2571C9.33439 24.5272 9.45146 24.791 9.57699 25.054C9.83299 25.6394 10.1179 26.2099 10.4233 26.7727C10.5403 27.0068 10.6715 27.2333 10.8034 27.4603C11.1764 28.1113 11.5791 28.7473 12.01 29.3644C12.2294 29.6719 12.4487 29.9787 12.6758 30.2812C12.8951 30.5669 13.1215 30.8517 13.3486 31.1275C13.3601 31.1353 13.3699 31.1454 13.3775 31.1571C13.436 31.2375 13.5023 31.3102 13.5679 31.3906C13.802 31.6727 14.0503 31.947 14.2992 32.2171C12.8568 30.0892 12.0872 27.5768 12.0904 25.0061V24.999C10.821 19.5582 10.6715 11.6526 15.4325 2.24059C15.4889 2.09883 15.5552 1.95786 15.6278 1.8281Z" fill="black"/>
</g>
<g style="mix-blend-mode:multiply" opacity="0.1">
<path d="M45.5099 -0.000543594L38.0725 -0.000543594L38.072 0.00235176L38.0702 0.00474548L38.0677 0.00623035L38.0648 0.00651073V0.0142689C37.9406 0.203976 37.8236 0.39446 37.6917 0.578525C37.4096 1.02493 37.1071 1.45653 36.7996 1.88038C36.0254 2.9433 35.1827 3.95459 34.277 4.90785C34.1084 5.0905 33.9328 5.27393 33.7572 5.45659C33.7283 5.4855 33.6916 5.51505 33.662 5.54397C33.4067 5.80772 33.1507 6.05603 32.8863 6.29722C32.6084 6.56098 32.3221 6.8169 32.04 7.0729C31.7988 7.27742 31.5506 7.48969 31.3016 7.69421C31.1408 7.82609 30.9723 7.95726 30.8044 8.08914C30.6726 8.19915 30.5336 8.30077 30.4018 8.40374C30.1972 8.55748 29.9927 8.71115 29.7875 8.85713C29.717 8.90861 29.6465 8.95939 29.583 9.00311C29.3199 9.19352 29.0491 9.38401 28.7713 9.5589C28.739 9.58486 28.7048 9.60841 28.669 9.62935C28.3693 9.82682 28.0689 10.0173 27.7621 10.2C27.4913 10.3756 27.2212 10.5363 26.9426 10.6823C26.8403 10.7486 26.731 10.8071 26.621 10.8656C26.358 11.0187 26.0949 11.1653 25.8312 11.2888C25.8023 11.3036 25.7804 11.3184 25.7508 11.3325C25.444 11.501 25.1295 11.6548 24.8149 11.8008C24.8001 11.8008 24.7931 11.8078 24.7783 11.8156C24.5667 11.9249 24.3551 12.0202 24.1436 12.1154C24.4256 12.0935 24.7141 12.0864 24.999 12.0864H28.236C34.6452 9.57696 40.3905 5.62549 45.0268 0.538326C45.1897 0.364841 45.3491 0.182111 45.5099 -0.000543594Z" fill="black"/>
</g>
<g style="mix-blend-mode:screen" opacity="0.6">
<path d="M33.2712 35.3442C30.7593 38.3331 27.6724 40.7867 24.1938 42.5594C20.7152 44.332 16.9158 45.3875 13.0213 45.6631C13.1306 45.6701 13.4741 45.6849 13.9938 45.6997C14.384 45.7103 14.7746 45.7005 15.1638 45.6701C15.6703 45.655 16.1756 45.6112 16.6772 45.539C16.9593 45.5093 17.2414 45.4684 17.5404 45.4289C17.8331 45.3704 18.1406 45.3119 18.4572 45.2533C19.0863 45.1363 19.7372 44.9536 20.41 44.7639C21.068 44.5368 21.7704 44.3542 22.4432 44.0544C23.1308 43.7836 23.8035 43.4621 24.4763 43.1377C25.1343 42.7724 25.8 42.4282 26.4143 42.0262C27.0434 41.6461 27.6209 41.2075 28.1837 40.7977C28.7401 40.3661 29.2592 39.9345 29.7268 39.5036C30.1749 39.1042 30.6021 38.6819 31.0067 38.2384C31.3946 37.8358 31.724 37.4486 32.0089 37.0896C32.2586 36.7923 32.4928 36.4823 32.7106 36.1608C33.0406 35.7024 33.231 35.4098 33.2712 35.3442Z" fill="white"/>
</g>
<g style="mix-blend-mode:screen" opacity="0.6">
<path d="M38.0668 0.0143242V0.00656605C38.0231 0.0509949 37.8327 0.248458 37.5407 0.577094C37.2114 0.943108 36.736 1.46921 36.1726 2.09828C35.8806 2.40576 35.5731 2.73298 35.2438 3.0856C34.9144 3.43821 34.5491 3.78024 34.1986 4.16036C33.4525 4.89168 32.6556 5.65968 31.8291 6.391C31.0025 7.13713 30.1365 7.83178 29.3354 8.48271C28.9122 8.79019 28.5307 9.11741 28.1365 9.39951C27.7423 9.6816 27.3833 9.95523 27.0469 10.2042C26.3664 10.7014 25.7958 11.104 25.379 11.389C25.0723 11.6005 24.8671 11.7543 24.7796 11.8206C30.2443 9.23343 34.8548 5.13675 38.0668 0.0143242Z" fill="white"/>
</g>
<g style="mix-blend-mode:screen" opacity="0.6">
<path d="M7.23205 14.1211C7.22845 11.6283 7.57817 9.14759 8.27085 6.75292V6.72401C8.27085 6.72401 8.10301 7.09707 7.86111 7.77691C7.52697 8.71311 7.26759 9.67426 7.08536 10.6514C6.81401 12.0414 6.67937 13.4546 6.68339 14.8708C6.67764 15.6693 6.71413 16.4676 6.7927 17.2622C6.88085 18.074 6.99792 18.9005 7.16576 19.7122C7.3336 20.5239 7.55363 21.3286 7.80046 22.11C7.91478 22.4994 8.0492 22.8826 8.20315 23.2581C8.34419 23.6312 8.49511 23.9972 8.65661 24.3554C8.95076 25.0401 9.28518 25.7067 9.65803 26.3519C9.9787 26.9368 10.3319 27.5033 10.7159 28.0487C11.0315 28.5142 11.3707 28.9634 11.7321 29.3943C12.0396 29.7892 12.3464 30.1037 12.5784 30.3738C13.0318 30.8351 13.3175 31.1052 13.3682 31.1496C9.39301 26.3665 7.22154 20.3405 7.23205 14.1211Z" fill="white"/>
</g>
<g style="mix-blend-mode:multiply" opacity="0.3">
<path d="M49.3857 -0.000197411L24.9961 -0.000197411C19.1748 0.00100136 13.537 2.03685 9.05792 5.75517C9.74552 5.25093 10.4402 4.77561 11.1644 4.3292C11.8998 3.87482 12.6587 3.45979 13.4381 3.08588C14.089 2.7643 14.7548 2.48644 15.4275 2.23044C15.5524 2.17896 15.6835 2.13524 15.8154 2.08375C16.6204 1.78276 17.4406 1.52387 18.2724 1.308C19.1012 1.08868 19.9408 0.913074 20.788 0.781901C21.6343 0.664834 22.4848 0.5704 23.3332 0.533023C24.1815 0.495646 25.0299 0.503334 25.9072 0.511092L28.5166 0.540076L33.731 0.57675H38.9455C40.9718 0.57675 42.9975 0.564477 45.0225 0.540076C46.3102 0.533024 47.5972 0.511095 48.8765 0.496284L48.8695 0.990013L48.7602 1.97726L48.5662 2.94484L48.2961 3.90324L47.9379 4.83908L47.4992 5.73825L46.9872 6.60145L46.4019 7.42022L45.758 8.18821L45.0528 8.91248L44.2918 9.57822L43.4731 10.1777L42.5951 10.7045L41.6783 11.1579L40.7276 11.538L39.7403 11.8378C42.465 11.2765 44.9127 9.79218 46.6699 7.63552C48.4272 5.47879 49.3864 2.78179 49.3857 -0.000197411Z" fill="black"/>
</g>
<g style="mix-blend-mode:multiply" opacity="0.3">
<path d="M50.0001 24.9956V18.9483H41.4217C42.8477 19.0428 44.2814 19.0943 45.7074 19.1599C47.0163 19.2184 48.3167 19.2621 49.627 19.3009L49.51 23.923C49.4951 24.7566 49.5029 25.5683 49.4394 26.3729C49.3824 27.1818 49.2847 27.9873 49.1468 28.7862C49.0217 29.583 48.8508 30.3718 48.6348 31.1488C48.4264 31.9377 48.175 32.7146 47.8816 33.4761C47.6256 34.2293 47.2673 34.9683 46.945 35.7066C46.5579 36.4161 46.2215 37.1545 45.768 37.8273C45.366 38.5325 44.883 39.1806 44.4147 39.8463C44.1805 40.175 43.9104 40.481 43.6615 40.797C43.4137 41.1191 43.1476 41.4265 42.8646 41.718C42.5867 42.0107 42.3159 42.3182 42.031 42.6031L41.1459 43.4494C40.8639 43.7315 40.5317 43.9762 40.2242 44.2463C39.9104 44.5023 39.61 44.7731 39.2736 45.0072L38.2862 45.7308L37.2552 46.3895C36.9118 46.6229 36.55 46.8126 36.1974 47.0108C35.8447 47.2089 35.4879 47.4276 35.1148 47.5961C34.3758 47.9487 33.6339 48.3056 32.8546 48.5834C32.1091 48.898 31.3263 49.1095 30.5583 49.3733C35.0617 48.3388 39.1915 46.0796 42.4915 42.8453C45.7915 39.611 48.1333 35.5274 49.2582 31.0458C49.7554 29.0677 50.0047 27.0354 50.0001 24.9956Z" fill="black"/>
</g>
</g>
<defs>
<linearGradient id="paint0_linear_67_88" x1="1024.37" y1="951.141" x2="997.066" y2="951.141" gradientUnits="userSpaceOnUse">
<stop stop-color="#00F3FF"/>
<stop offset="0.238" stop-color="#00EFFC"/>
<stop offset="0.44" stop-color="#00E5F4"/>
<stop offset="0.629" stop-color="#00D3E7"/>
<stop offset="0.81" stop-color="#00BAD4"/>
<stop offset="0.983" stop-color="#009BBC"/>
<stop offset="1" stop-color="#0098BA"/>
</linearGradient>
<linearGradient id="paint1_linear_67_88" x1="1023.36" y1="959.78" x2="1023.36" y2="941.458" gradientUnits="userSpaceOnUse">
<stop stop-color="#233B55"/>
<stop offset="1" stop-color="#131D32"/>
</linearGradient>
<linearGradient id="paint2_linear_67_88" x1="1018.85" y1="982.065" x2="1018.85" y2="948.017" gradientUnits="userSpaceOnUse">
<stop stop-color="#49A09D"/>
<stop offset="0.149" stop-color="#4A989B"/>
<stop offset="0.375" stop-color="#4E8396"/>
<stop offset="0.65" stop-color="#54618E"/>
<stop offset="0.96" stop-color="#5D3283"/>
<stop offset="1" stop-color="#5F2C82"/>
</linearGradient>
<linearGradient id="paint3_linear_67_88" x1="1042.54" y1="933.052" x2="1040.4" y2="955.768" gradientUnits="userSpaceOnUse">
<stop stop-color="#233B55"/>
<stop offset="1" stop-color="#131D32"/>
</linearGradient>
<linearGradient id="paint4_linear_67_88" x1="1045.93" y1="951.564" x2="1022.52" y2="971.621" gradientUnits="userSpaceOnUse">
<stop stop-color="#3E6896"/>
<stop offset="0.247" stop-color="#355881"/>
<stop offset="0.75" stop-color="#1F324E"/>
<stop offset="1" stop-color="#131D32"/>
</linearGradient>
</defs>
</svg>
